<mxfile host="app.diagrams.net" agent="Mozilla/5.0 (Windows NT 10.0; Win64; x64) AppleWebKit/537.36 (KHTML, like Gecko) Chrome/129.0.0.0 Safari/537.36 Edg/129.0.0.0" version="24.8.2">
  <diagram name="第 1 页" id="HbvuxJpexQXpHqL3rPaI">
    <mxGraphModel dx="1426" dy="781" grid="1" gridSize="10" guides="1" tooltips="1" connect="1" arrows="1" fold="1" page="1" pageScale="1" pageWidth="827" pageHeight="1169" math="0" shadow="0">
      <root>
        <mxCell id="0" />
        <mxCell id="1" parent="0" />
        <mxCell id="FGRro3DLB332El5FIr0W-1" value="开始测试" style="ellipse;whiteSpace=wrap;html=1;fillColor=#ffe6cc;strokeColor=#d79b00;" vertex="1" parent="1">
          <mxGeometry x="170" y="130" width="80" height="60" as="geometry" />
        </mxCell>
        <mxCell id="FGRro3DLB332El5FIr0W-2" style="edgeStyle=orthogonalEdgeStyle;rounded=0;orthogonalLoop=1;jettySize=auto;html=1;exitX=0.5;exitY=1;exitDx=0;exitDy=0;entryX=0.5;entryY=0;entryDx=0;entryDy=0;" edge="1" parent="1" source="FGRro3DLB332El5FIr0W-1" target="FGRro3DLB332El5FIr0W-4">
          <mxGeometry relative="1" as="geometry">
            <mxPoint x="210" y="160" as="sourcePoint" />
          </mxGeometry>
        </mxCell>
        <mxCell id="FGRro3DLB332El5FIr0W-3" style="edgeStyle=orthogonalEdgeStyle;rounded=0;orthogonalLoop=1;jettySize=auto;html=1;entryX=0.5;entryY=0;entryDx=0;entryDy=0;" edge="1" parent="1" source="FGRro3DLB332El5FIr0W-4" target="FGRro3DLB332El5FIr0W-6">
          <mxGeometry relative="1" as="geometry" />
        </mxCell>
        <mxCell id="FGRro3DLB332El5FIr0W-4" value="指定不同算法、测试环境" style="rounded=0;whiteSpace=wrap;html=1;fillColor=#dae8fc;strokeColor=#6c8ebf;" vertex="1" parent="1">
          <mxGeometry x="110" y="210" width="200" height="60" as="geometry" />
        </mxCell>
        <mxCell id="FGRro3DLB332El5FIr0W-5" style="edgeStyle=orthogonalEdgeStyle;rounded=0;orthogonalLoop=1;jettySize=auto;html=1;entryX=0.5;entryY=0;entryDx=0;entryDy=0;" edge="1" parent="1" source="FGRro3DLB332El5FIr0W-6" target="FGRro3DLB332El5FIr0W-8">
          <mxGeometry relative="1" as="geometry" />
        </mxCell>
        <mxCell id="FGRro3DLB332El5FIr0W-6" value="&lt;div&gt;测试环境初始化&lt;/div&gt;加载对应模型" style="rounded=0;whiteSpace=wrap;html=1;fillColor=#dae8fc;strokeColor=#6c8ebf;" vertex="1" parent="1">
          <mxGeometry x="150" y="290" width="120" height="60" as="geometry" />
        </mxCell>
        <mxCell id="FGRro3DLB332El5FIr0W-7" style="edgeStyle=orthogonalEdgeStyle;rounded=0;orthogonalLoop=1;jettySize=auto;html=1;exitX=0.5;exitY=1;exitDx=0;exitDy=0;entryX=0.5;entryY=0;entryDx=0;entryDy=0;" edge="1" parent="1" source="FGRro3DLB332El5FIr0W-8" target="FGRro3DLB332El5FIr0W-13">
          <mxGeometry relative="1" as="geometry" />
        </mxCell>
        <mxCell id="FGRro3DLB332El5FIr0W-8" value="无人机根据观测执行控制指令&lt;div&gt;&lt;/div&gt;&lt;div&gt;环境根据控制指令进行仿真&lt;/div&gt;" style="rounded=0;whiteSpace=wrap;html=1;fillColor=#dae8fc;strokeColor=#6c8ebf;" vertex="1" parent="1">
          <mxGeometry x="100" y="370" width="220" height="60" as="geometry" />
        </mxCell>
        <mxCell id="FGRro3DLB332El5FIr0W-9" style="edgeStyle=orthogonalEdgeStyle;rounded=0;orthogonalLoop=1;jettySize=auto;html=1;exitX=1;exitY=0.5;exitDx=0;exitDy=0;entryX=0;entryY=0.5;entryDx=0;entryDy=0;" edge="1" parent="1" source="FGRro3DLB332El5FIr0W-13" target="FGRro3DLB332El5FIr0W-18">
          <mxGeometry relative="1" as="geometry">
            <mxPoint x="330" y="490.2857142857142" as="targetPoint" />
          </mxGeometry>
        </mxCell>
        <mxCell id="FGRro3DLB332El5FIr0W-10" value="否" style="edgeLabel;html=1;align=center;verticalAlign=middle;resizable=0;points=[];" vertex="1" connectable="0" parent="FGRro3DLB332El5FIr0W-9">
          <mxGeometry x="-0.105" y="-2" relative="1" as="geometry">
            <mxPoint x="-5" y="-12" as="offset" />
          </mxGeometry>
        </mxCell>
        <mxCell id="FGRro3DLB332El5FIr0W-11" style="edgeStyle=orthogonalEdgeStyle;rounded=0;orthogonalLoop=1;jettySize=auto;html=1;exitX=0.5;exitY=1;exitDx=0;exitDy=0;entryX=0.5;entryY=0;entryDx=0;entryDy=0;" edge="1" parent="1" source="FGRro3DLB332El5FIr0W-13" target="FGRro3DLB332El5FIr0W-25">
          <mxGeometry relative="1" as="geometry">
            <mxPoint x="210" y="570" as="targetPoint" />
          </mxGeometry>
        </mxCell>
        <mxCell id="FGRro3DLB332El5FIr0W-12" value="是" style="edgeLabel;html=1;align=center;verticalAlign=middle;resizable=0;points=[];" vertex="1" connectable="0" parent="FGRro3DLB332El5FIr0W-11">
          <mxGeometry x="-0.1857" relative="1" as="geometry">
            <mxPoint x="10" as="offset" />
          </mxGeometry>
        </mxCell>
        <mxCell id="FGRro3DLB332El5FIr0W-13" value="敌机达到攻击位置？" style="rhombus;whiteSpace=wrap;html=1;fillColor=#f8cecc;strokeColor=#b85450;" vertex="1" parent="1">
          <mxGeometry x="145" y="450" width="130" height="80" as="geometry" />
        </mxCell>
        <mxCell id="FGRro3DLB332El5FIr0W-14" style="edgeStyle=orthogonalEdgeStyle;rounded=0;orthogonalLoop=1;jettySize=auto;html=1;exitX=0.5;exitY=0;exitDx=0;exitDy=0;entryX=1;entryY=0.5;entryDx=0;entryDy=0;" edge="1" parent="1" source="FGRro3DLB332El5FIr0W-18" target="FGRro3DLB332El5FIr0W-8">
          <mxGeometry relative="1" as="geometry" />
        </mxCell>
        <mxCell id="FGRro3DLB332El5FIr0W-15" value="否" style="edgeLabel;html=1;align=center;verticalAlign=middle;resizable=0;points=[];" vertex="1" connectable="0" parent="FGRro3DLB332El5FIr0W-14">
          <mxGeometry x="-0.4192" y="1" relative="1" as="geometry">
            <mxPoint x="12" y="16" as="offset" />
          </mxGeometry>
        </mxCell>
        <mxCell id="FGRro3DLB332El5FIr0W-16" style="edgeStyle=orthogonalEdgeStyle;rounded=0;orthogonalLoop=1;jettySize=auto;html=1;entryX=0.5;entryY=0;entryDx=0;entryDy=0;" edge="1" parent="1" source="FGRro3DLB332El5FIr0W-18" target="FGRro3DLB332El5FIr0W-23">
          <mxGeometry relative="1" as="geometry" />
        </mxCell>
        <mxCell id="FGRro3DLB332El5FIr0W-17" value="是" style="edgeLabel;html=1;align=center;verticalAlign=middle;resizable=0;points=[];" vertex="1" connectable="0" parent="FGRro3DLB332El5FIr0W-16">
          <mxGeometry x="-0.3458" relative="1" as="geometry">
            <mxPoint x="12" as="offset" />
          </mxGeometry>
        </mxCell>
        <mxCell id="FGRro3DLB332El5FIr0W-18" value="成功打击敌机？" style="rhombus;whiteSpace=wrap;html=1;fillColor=#f8cecc;strokeColor=#b85450;" vertex="1" parent="1">
          <mxGeometry x="310" y="450" width="130" height="80" as="geometry" />
        </mxCell>
        <mxCell id="FGRro3DLB332El5FIr0W-19" style="edgeStyle=orthogonalEdgeStyle;rounded=0;orthogonalLoop=1;jettySize=auto;html=1;entryX=0.5;entryY=0;entryDx=0;entryDy=0;" edge="1" parent="1" source="FGRro3DLB332El5FIr0W-23" target="FGRro3DLB332El5FIr0W-27">
          <mxGeometry relative="1" as="geometry" />
        </mxCell>
        <mxCell id="FGRro3DLB332El5FIr0W-20" value="是" style="edgeLabel;html=1;align=center;verticalAlign=middle;resizable=0;points=[];" vertex="1" connectable="0" parent="FGRro3DLB332El5FIr0W-19">
          <mxGeometry x="-0.1792" y="2" relative="1" as="geometry">
            <mxPoint x="9" as="offset" />
          </mxGeometry>
        </mxCell>
        <mxCell id="FGRro3DLB332El5FIr0W-21" style="edgeStyle=orthogonalEdgeStyle;rounded=0;orthogonalLoop=1;jettySize=auto;html=1;entryX=0;entryY=0.5;entryDx=0;entryDy=0;" edge="1" parent="1" source="FGRro3DLB332El5FIr0W-23" target="FGRro3DLB332El5FIr0W-29">
          <mxGeometry relative="1" as="geometry" />
        </mxCell>
        <mxCell id="FGRro3DLB332El5FIr0W-22" value="否" style="edgeLabel;html=1;align=center;verticalAlign=middle;resizable=0;points=[];" vertex="1" connectable="0" parent="FGRro3DLB332El5FIr0W-21">
          <mxGeometry x="-0.6978" y="1" relative="1" as="geometry">
            <mxPoint y="-9" as="offset" />
          </mxGeometry>
        </mxCell>
        <mxCell id="FGRro3DLB332El5FIr0W-23" value="我方发生碰撞？" style="rhombus;whiteSpace=wrap;html=1;fillColor=#f8cecc;strokeColor=#b85450;" vertex="1" parent="1">
          <mxGeometry x="311.25" y="560" width="128.75" height="80" as="geometry" />
        </mxCell>
        <mxCell id="FGRro3DLB332El5FIr0W-24" style="edgeStyle=orthogonalEdgeStyle;rounded=0;orthogonalLoop=1;jettySize=auto;html=1;exitX=0.5;exitY=1;exitDx=0;exitDy=0;entryX=0;entryY=0.5;entryDx=0;entryDy=0;" edge="1" parent="1" source="FGRro3DLB332El5FIr0W-25" target="FGRro3DLB332El5FIr0W-30">
          <mxGeometry relative="1" as="geometry" />
        </mxCell>
        <mxCell id="FGRro3DLB332El5FIr0W-25" value="对抗失败，任务失败" style="rounded=1;whiteSpace=wrap;html=1;fillColor=#d5e8d4;strokeColor=#82b366;" vertex="1" parent="1">
          <mxGeometry x="150" y="570" width="120" height="60" as="geometry" />
        </mxCell>
        <mxCell id="FGRro3DLB332El5FIr0W-26" style="edgeStyle=orthogonalEdgeStyle;rounded=0;orthogonalLoop=1;jettySize=auto;html=1;exitX=0.5;exitY=1;exitDx=0;exitDy=0;entryX=0.5;entryY=0;entryDx=0;entryDy=0;" edge="1" parent="1" source="FGRro3DLB332El5FIr0W-27" target="FGRro3DLB332El5FIr0W-30">
          <mxGeometry relative="1" as="geometry" />
        </mxCell>
        <mxCell id="FGRro3DLB332El5FIr0W-27" value="对抗成功，任务失败" style="rounded=1;whiteSpace=wrap;html=1;fillColor=#d5e8d4;strokeColor=#82b366;" vertex="1" parent="1">
          <mxGeometry x="315" y="670" width="120" height="60" as="geometry" />
        </mxCell>
        <mxCell id="FGRro3DLB332El5FIr0W-28" style="edgeStyle=orthogonalEdgeStyle;rounded=0;orthogonalLoop=1;jettySize=auto;html=1;exitX=0.5;exitY=1;exitDx=0;exitDy=0;entryX=1;entryY=0.5;entryDx=0;entryDy=0;" edge="1" parent="1" source="FGRro3DLB332El5FIr0W-29" target="FGRro3DLB332El5FIr0W-30">
          <mxGeometry relative="1" as="geometry" />
        </mxCell>
        <mxCell id="FGRro3DLB332El5FIr0W-29" value="对抗成功，任务成功" style="rounded=1;whiteSpace=wrap;html=1;fillColor=#d5e8d4;strokeColor=#82b366;" vertex="1" parent="1">
          <mxGeometry x="470" y="570" width="120" height="60" as="geometry" />
        </mxCell>
        <mxCell id="FGRro3DLB332El5FIr0W-30" value="结束" style="ellipse;whiteSpace=wrap;html=1;fillColor=#ffe6cc;strokeColor=#d79b00;" vertex="1" parent="1">
          <mxGeometry x="335" y="760" width="80" height="60" as="geometry" />
        </mxCell>
      </root>
    </mxGraphModel>
  </diagram>
</mxfile>
